<svg width="32" height="29" viewBox="0 0 32 29" fill="none" xmlns="http://www.w3.org/2000/svg">
    <path d="M29.8422 28.399C30.2396 28.3096 30.6072 28.1407 30.9451 27.8923C30.9451 27.8923 31.0741 27.8056 31.0242 27.6734C30.9743 27.5411 30.8556 27.5942 30.8556 27.5942C30.6569 27.6837 30.4483 27.7433 30.2297 27.7731C30.021 27.8128 29.8024 27.8327 29.5739 27.8327C28.0736 27.8327 26.7869 27.6191 25.7138 27.1918C24.6507 26.7646 23.7564 26.1784 23.0311 25.4332C22.3058 24.6979 21.7295 23.8335 21.3022 22.8399C20.875 21.8463 20.5521 20.7782 20.3335 19.6355C20.1149 18.4929 19.9808 17.3105 19.9311 16.0884C19.8814 14.8663 19.8665 13.6591 19.8864 12.4668C19.9162 11.2745 19.9609 10.1269 20.0205 9.02397C20.0801 7.91115 20.1099 6.89768 20.1099 5.98357C20.1099 5.77492 20.095 5.52155 20.0652 5.22348C20.0354 4.91546 19.9708 4.62235 19.8715 4.34415C19.782 4.06594 19.6479 3.82748 19.4691 3.62876C19.2902 3.43004 19.0468 3.33068 18.7388 3.33068C18.5202 3.33068 18.3215 3.38036 18.1426 3.47972C17.9638 3.57908 17.8048 3.70328 17.6657 3.85232C17.5266 4.00136 17.4024 4.17027 17.2931 4.35905C17.1838 4.5379 17.0844 4.71674 16.995 4.89559C16.5976 5.79976 16.2349 6.67909 15.907 7.53358C15.5791 8.38807 15.2612 9.24256 14.9532 10.0971C14.6551 10.9515 14.362 11.816 14.0739 12.6903C13.7956 13.5647 13.5025 14.4738 13.1945 15.4177C12.8964 16.3617 12.5785 17.3552 12.2407 18.3985C11.9029 19.4319 11.5352 20.5347 11.1378 21.7072C11.0086 20.2565 10.9391 18.8009 10.9291 17.3403C10.9291 15.8798 10.954 14.4092 11.0036 12.9288C11.0533 11.4483 11.1129 9.95795 11.1825 8.45762C11.252 6.94736 11.2968 5.42219 11.3166 3.88212C11.3166 3.67347 11.2968 3.44494 11.257 3.19655C11.2272 2.94815 11.1626 2.71962 11.0633 2.51097C10.9639 2.30231 10.8248 2.12843 10.646 1.98933C10.477 1.85023 10.2535 1.78068 9.97528 1.78068C9.56791 1.78068 9.23505 1.91481 8.97672 2.18308C8.71839 2.45135 8.5147 2.7544 8.36566 3.09222C8.33585 3.16177 8.30604 3.24126 8.27624 3.33068C8.24643 3.4201 8.19675 3.56417 8.1272 3.76289C8.05765 3.95168 7.96822 4.22491 7.85893 4.58261C7.74963 4.93037 7.60059 5.39735 7.41181 5.98357C7.22303 6.56979 6.98953 7.30009 6.71133 8.17445C6.44306 9.03887 6.1102 10.0871 5.71277 11.3192C5.31533 12.5512 4.85331 13.987 4.3267 15.6264C3.81003 17.2658 3.20891 19.1487 2.52333 21.275C2.44384 20.5 2.3892 19.7299 2.35939 18.9649C2.32958 18.1998 2.31468 17.4248 2.31468 16.6399C2.31468 14.6328 2.39416 12.6406 2.55314 10.6634C2.72205 8.67621 2.92574 6.68903 3.1642 4.70184C3.26356 4.08581 3.35795 3.48469 3.44737 2.89847L3.71564 1.11V0.960961C3.71564 0.801986 3.66596 0.69269 3.5666 0.633075C3.46725 0.563523 3.34801 0.528748 3.20891 0.528748C2.63263 0.528748 2.17557 0.672819 1.83775 0.960961C1.50987 1.2491 1.2565 1.6068 1.07765 2.03404C0.908743 2.46129 0.794479 2.91834 0.734864 3.4052C0.675248 3.88212 0.630536 4.31434 0.600729 4.70184C0.511305 6.04319 0.441754 7.36964 0.392074 8.68118C0.35233 9.99272 0.332458 11.3142 0.332458 12.6456C0.332458 13.9969 0.35233 15.3383 0.392074 16.6697C0.441754 18.0011 0.521241 19.3474 0.630536 20.7086C0.650408 20.967 0.67028 21.2452 0.690152 21.5432L0.749768 22.4673C0.779575 22.7852 0.809383 23.0933 0.839191 23.3913C0.878935 23.6894 0.923646 23.9626 0.973326 24.211C0.983262 24.3303 1.0081 24.4594 1.04785 24.5985C1.09753 24.7476 1.15714 24.8817 1.22669 25.0009C1.30618 25.1301 1.40057 25.2394 1.50987 25.3288C1.61916 25.4183 1.74336 25.463 1.88246 25.463C2.0315 25.463 2.1557 25.4133 2.25506 25.3139C2.36436 25.2245 2.45378 25.1152 2.52333 24.986C2.59288 24.8569 2.64753 24.7178 2.68727 24.5687C2.73695 24.4296 2.7767 24.3104 2.80651 24.211C3.07478 23.0982 3.37782 21.9506 3.71564 20.7682C4.0634 19.5859 4.42109 18.4134 4.78872 17.2509C5.16629 16.0884 5.54386 14.9607 5.92142 13.8677C6.30892 12.7648 6.67655 11.7365 7.02431 10.7826C7.382 9.82878 7.70989 8.96932 8.00797 8.20426C8.31598 7.43919 8.57928 6.80826 8.79787 6.31146V7.74223V9.76917C8.80781 10.5144 8.81278 11.3192 8.81278 12.1836C8.82271 13.0381 8.83265 13.9124 8.84258 14.8067L8.9022 17.4596C8.92207 18.3339 8.94691 19.1586 8.97672 19.9336C9.01646 20.7086 9.06118 21.4141 9.11086 22.05C9.16053 22.6859 9.21518 23.2125 9.2748 23.6298C9.29467 23.749 9.32448 23.908 9.36422 24.1067C9.4139 24.3054 9.47352 24.5042 9.54307 24.7029C9.62256 24.9016 9.72191 25.0705 9.84115 25.2096C9.96038 25.3586 10.1094 25.4332 10.2883 25.4332C10.4472 25.4332 10.5863 25.3735 10.7056 25.2543C10.8347 25.1351 10.944 24.991 11.0335 24.8221C11.1328 24.6532 11.2123 24.4793 11.2719 24.3005C11.3415 24.1216 11.3961 23.9726 11.4359 23.8533C11.4855 23.6745 11.5948 23.3218 11.7637 22.7952C11.9426 22.2785 12.1512 21.6476 12.3897 20.9024C12.6381 20.1572 12.9163 19.3325 13.2243 18.4283C13.5423 17.5142 13.8652 16.5852 14.1931 15.6413C14.5309 14.6974 14.8687 13.7634 15.2065 12.8394C15.5444 11.9054 15.8673 11.0459 16.1753 10.261C16.4933 9.47605 16.7814 8.79047 17.0397 8.20426C17.2981 7.61804 17.5167 7.19079 17.6955 6.92252C17.5961 7.90618 17.5266 8.97429 17.4868 10.1269C17.457 11.2695 17.4769 12.4419 17.5465 13.6442C17.616 14.8365 17.7501 16.0338 17.9489 17.236C18.1476 18.4383 18.4308 19.5908 18.7984 20.6937C19.176 21.7966 19.6429 22.825 20.1994 23.7788C20.7657 24.7327 21.4463 25.5623 22.2412 26.2678C23.046 26.9732 23.975 27.5247 25.0282 27.9221C26.0914 28.3295 27.3035 28.5332 28.6648 28.5332C29.0622 28.5332 29.4547 28.4885 29.8422 28.399Z"
          fill="#2C80D2"
    />
</svg>
