<svg width="80" height="80" viewBox="0 0 80 80" xmlns="http://www.w3.org/2000/svg">
    <path fill-rule="evenodd" clip-rule="evenodd"
          d="M40 80C62.0914 80 80 62.0914 80 40C80 17.9086 62.0914 0 40 0C17.9086 0 0 17.9086 0 40C0 48.27 2.50974 55.9539 6.80913 62.3314L6.81092 62.3341C6.8792 62.4353 6.94794 62.5363 7.01712 62.6369C7.14738 62.8263 7.17343 63.0691 7.08375 63.2807L6.93957 63.621L1.28496 76.9672C0.817499 78.0705 1.92948 79.1825 3.0328 78.715L16.379 73.0604L16.7193 72.9163C16.9309 72.8266 17.1737 72.8526 17.3631 72.9829C17.4637 73.0521 17.5647 73.1208 17.6659 73.1891L17.6686 73.1909C24.0461 77.4903 31.73 80 40 80Z"
          fill="inherit"
    />
    <path d="M62.8014 57.5827C63.2788 57.4753 63.7204 57.2724 64.1263 56.974C64.1263 56.974 64.2812 56.8698 64.2213 56.711C64.1614 56.5521 64.0188 56.6159 64.0188 56.6159C63.7801 56.7234 63.5295 56.795 63.2669 56.8308C63.0162 56.8785 62.7537 56.9024 62.4791 56.9024C60.6768 56.9024 59.1311 56.6458 57.8421 56.1325C56.565 55.6193 55.4907 54.9151 54.6194 54.0199C53.7481 53.1367 53.0558 52.0982 52.5426 50.9047C52.0294 49.7111 51.6415 48.428 51.3789 47.0554C51.1163 45.6828 50.9551 44.2624 50.8955 42.7943C50.8358 41.3262 50.8179 39.876 50.8418 38.4437C50.8776 37.0114 50.9313 35.6329 51.0029 34.308C51.0745 32.9712 51.1103 31.7537 51.1103 30.6556C51.1103 30.405 51.0924 30.1006 51.0566 29.7426C51.0208 29.3725 50.9432 29.0204 50.8239 28.6862C50.7164 28.352 50.5553 28.0656 50.3405 27.8269C50.1256 27.5881 49.8332 27.4688 49.4632 27.4688C49.2006 27.4688 48.9619 27.5285 48.747 27.6478C48.5322 27.7672 48.3412 27.9164 48.1741 28.0954C48.007 28.2745 47.8578 28.4774 47.7265 28.7041C47.5952 28.919 47.4759 29.1338 47.3685 29.3487C46.891 30.4348 46.4554 31.4911 46.0615 32.5176C45.6676 33.5441 45.2857 34.5706 44.9156 35.597C44.5576 36.6235 44.2055 37.6619 43.8593 38.7123C43.5251 39.7626 43.173 40.8548 42.803 41.9886C42.4449 43.1225 42.063 44.3161 41.6572 45.5694C41.2514 46.8107 40.8097 48.1356 40.3323 49.544C40.1772 47.8014 40.0936 46.0528 40.0817 44.2982C40.0817 42.5437 40.1115 40.7772 40.1712 38.9987C40.2309 37.2203 40.3025 35.4299 40.386 33.6276C40.4696 31.8134 40.5233 29.9813 40.5472 28.1312C40.5472 27.8806 40.5233 27.6061 40.4755 27.3077C40.4397 27.0093 40.3622 26.7347 40.2428 26.4841C40.1234 26.2334 39.9563 26.0246 39.7415 25.8575C39.5386 25.6904 39.27 25.6068 38.9358 25.6068C38.4465 25.6068 38.0466 25.7679 37.7363 26.0902C37.426 26.4125 37.1813 26.7765 37.0022 27.1823C36.9664 27.2659 36.9306 27.3614 36.8948 27.4688C36.859 27.5762 36.7993 27.7493 36.7158 27.988C36.6322 28.2148 36.5248 28.543 36.3935 28.9727C36.2622 29.3904 36.0832 29.9514 35.8564 30.6556C35.6296 31.3599 35.3491 32.2371 35.0149 33.2875C34.6927 34.3259 34.2928 35.5851 33.8154 37.0651C33.338 38.5452 32.7829 40.2699 32.1504 42.2393C31.5297 44.2087 30.8076 46.4705 29.984 49.0248C29.8885 48.0938 29.8229 47.1688 29.7871 46.2497C29.7513 45.3307 29.7334 44.3997 29.7334 43.4567C29.7334 41.0457 29.8288 38.6526 30.0198 36.2774C30.2227 33.8902 30.4674 31.5031 30.7539 29.1159C30.8732 28.3759 30.9866 27.6538 31.094 26.9496L31.4163 24.8011V24.6221C31.4163 24.4311 31.3566 24.2998 31.2373 24.2282C31.1179 24.1447 30.9747 24.1029 30.8076 24.1029C30.1153 24.1029 29.5663 24.276 29.1604 24.6221C28.7666 24.9682 28.4622 25.3979 28.2474 25.9112C28.0444 26.4244 27.9072 26.9735 27.8356 27.5583C27.764 28.1312 27.7102 28.6504 27.6744 29.1159C27.567 30.7273 27.4835 32.3207 27.4238 33.8962C27.376 35.4717 27.3522 37.0592 27.3522 38.6586C27.3522 40.2818 27.376 41.8932 27.4238 43.4926C27.4835 45.0919 27.579 46.7092 27.7102 48.3444C27.7341 48.6548 27.758 48.989 27.7819 49.347L27.8535 50.4571C27.8893 50.839 27.9251 51.209 27.9609 51.5671C28.0086 51.9252 28.0624 52.2534 28.122 52.5518C28.134 52.695 28.1638 52.8502 28.2115 53.0173C28.2712 53.1963 28.3428 53.3575 28.4264 53.5007C28.5219 53.6559 28.6353 53.7872 28.7666 53.8946C28.8979 54.002 29.0471 54.0557 29.2142 54.0557C29.3932 54.0557 29.5424 53.996 29.6617 53.8767C29.793 53.7693 29.9005 53.638 29.984 53.4828C30.0676 53.3276 30.1332 53.1605 30.1809 52.9815C30.2406 52.8144 30.2884 52.6712 30.3242 52.5518C30.6464 51.215 31.0105 49.8364 31.4163 48.4161C31.8341 46.9957 32.2637 45.5873 32.7054 44.1908C33.1589 42.7943 33.6125 41.4396 34.066 40.1267C34.5315 38.8018 34.9732 37.5664 35.3909 36.4206C35.8206 35.2748 36.2145 34.2423 36.5726 33.3233C36.9426 32.4042 37.2589 31.6463 37.5214 31.0495V32.7683V35.2032C37.5334 36.0983 37.5393 37.0651 37.5393 38.1036C37.5513 39.13 37.5632 40.1804 37.5752 41.2546L37.6468 44.4415C37.6706 45.4918 37.7005 46.4825 37.7363 47.4135C37.784 48.3444 37.8377 49.1919 37.8974 49.9558C37.9571 50.7197 38.0227 51.3523 38.0944 51.8536C38.1182 51.9968 38.154 52.1878 38.2018 52.4265C38.2615 52.6652 38.3331 52.9039 38.4166 53.1426C38.5121 53.3813 38.6315 53.5842 38.7747 53.7513C38.9179 53.9304 39.097 54.0199 39.3118 54.0199C39.5028 54.0199 39.6699 53.9483 39.8131 53.8051C39.9683 53.6618 40.0996 53.4888 40.207 53.2859C40.3263 53.0829 40.4218 52.8741 40.4934 52.6592C40.577 52.4444 40.6426 52.2653 40.6904 52.1221C40.7501 51.9073 40.8814 51.4836 41.0843 50.851C41.2991 50.2303 41.5498 49.4724 41.8362 48.5772C42.1346 47.682 42.4688 46.6913 42.8388 45.6052C43.2208 44.5071 43.6087 43.3911 44.0026 42.2572C44.4084 41.1233 44.8142 40.0013 45.22 38.8913C45.6258 37.7694 46.0137 36.7369 46.3837 35.794C46.7657 34.8511 47.1118 34.0275 47.4222 33.3233C47.7325 32.6191 47.9951 32.1058 48.2099 31.7836C48.0906 32.9652 48.007 34.2483 47.9593 35.6329C47.9235 37.0055 47.9473 38.4139 48.0309 39.8581C48.1144 41.2904 48.2756 42.7287 48.5143 44.1729C48.753 45.6171 49.0932 47.0017 49.5348 48.3265C49.9883 49.6514 50.5493 50.8868 51.2177 52.0326C51.8981 53.1784 52.7157 54.1751 53.6705 55.0225C54.6373 55.8699 55.7533 56.5324 57.0185 57.0098C58.2956 57.4992 59.7518 57.7439 61.387 57.7439C61.8644 57.7439 62.3359 57.6901 62.8014 57.5827Z"
          fill="currentColor"
    />
</svg>
